# xmcd
#
# Track frame offsets: 
#        150
#        22783
#        44265
#
# Disc length: 836 seconds
#
# Revision: 3
# Processed by: cddbd v1.5.2PL0 Copyright (c) Steve Scherf et al.
# Submitted via: ExactAudioCopyFreeDBPlugin 1.0
#
DISCID=16034203
DTITLE=Randy Crawford - Knockin' On Heaven's Door [CD Single)
DYEAR=1989
DGENRE=Blues
TTITLE0=Randy Crawford feat. Eric Clapton and David Sanborn - Knockin' O
TTITLE0=n Heaven's Door
TTITLE1=Medley: The Shipyard - Knockin' On Heaven's Door
TTITLE2=Almaz
EXTD=From the forthcoming Album''RICH AND POOR'' from Randy Crawford.\n
EXTD=Also taken from the Original
EXTT0=
EXTT1=
EXTT2=
PLAYORDER=
